<svg width="2754" height="1417" xmlns="http://www.w3.org/2000/svg" xmlns:xlink="http://www.w3.org/1999/xlink" xml:space="preserve" overflow="hidden"><g transform="translate(-715 -265)"><g><g><g><g><path d="M1154.56 827.812 1154.56 820.937 1140.81 820.937 1140.81 704.062 1154.56 704.062 1154.56 697.187 1164.88 697.187 1164.88 676.562 1154.56 676.562 1048 611.25 941.438 676.562 931.125 676.562 931.125 697.187 941.438 697.187 941.438 704.062 955.188 704.062 955.188 820.937 941.438 820.937 941.438 827.812 917.375 845 917.375 858.75 1048 858.75 1178.63 858.75 1178.63 845 1154.56 827.812ZM996.438 820.937 975.813 820.937 975.813 704.062 996.438 704.062 996.438 820.937ZM1037.69 820.937 1017.06 820.937 1017.06 704.062 1037.69 704.062 1037.69 820.937ZM1044.56 669.687C1037 669.687 1030.81 663.5 1030.81 655.937 1030.81 648.375 1037 642.187 1044.56 642.187 1052.13 642.187 1058.31 648.375 1058.31 655.937 1058.31 663.5 1052.13 669.687 1044.56 669.687ZM1078.94 820.937 1058.31 820.937 1058.31 704.062 1078.94 704.062 1078.94 820.937ZM1120.19 820.937 1099.56 820.937 1099.56 704.062 1120.19 704.062 1120.19 820.937Z" fill="#000000" fill-rule="nonzero" fill-opacity="1"/></g></g></g><g><g><g><path d="M1729.25 906.875C1729.25 922.063 1686.16 934.375 1633 934.375 1579.84 934.375 1536.75 922.063 1536.75 906.875 1536.75 891.687 1579.84 879.375 1633 879.375 1686.16 879.375 1729.25 891.687 1729.25 906.875Z" fill="#000000" fill-rule="nonzero" fill-opacity="1"/><path d="M1701.75 975.625C1697.63 975.625 1694.88 972.875 1694.88 968.75 1694.88 964.625 1697.63 961.875 1701.75 961.875 1705.88 961.875 1708.63 964.625 1708.63 968.75 1708.63 972.875 1705.88 975.625 1701.75 975.625ZM1633 948.125C1580.06 948.125 1536.75 935.75 1536.75 920.625L1536.75 975.625C1536.75 990.75 1580.06 1003.12 1633 1003.12 1685.94 1003.12 1729.25 990.75 1729.25 975.625L1729.25 920.625C1729.25 935.75 1685.94 948.125 1633 948.125Z" fill="#000000" fill-rule="nonzero" fill-opacity="1"/><path d="M1701.75 1044.38C1697.63 1044.38 1694.88 1041.62 1694.88 1037.5 1694.88 1033.37 1697.63 1030.62 1701.75 1030.62 1705.88 1030.62 1708.63 1033.37 1708.63 1037.5 1708.63 1041.62 1705.88 1044.38 1701.75 1044.38ZM1633 1016.87C1580.06 1016.87 1536.75 1004.5 1536.75 989.375L1536.75 1044.38C1536.75 1059.5 1580.06 1071.88 1633 1071.88 1685.94 1071.88 1729.25 1059.5 1729.25 1044.38L1729.25 989.375C1729.25 1004.5 1685.94 1016.87 1633 1016.87Z" fill="#000000" fill-rule="nonzero" fill-opacity="1"/><path d="M1701.75 1113.12C1697.63 1113.12 1694.88 1110.37 1694.88 1106.25 1694.88 1102.12 1697.63 1099.38 1701.75 1099.38 1705.88 1099.38 1708.63 1102.12 1708.63 1106.25 1708.63 1110.37 1705.88 1113.12 1701.75 1113.12ZM1633 1085.62C1580.06 1085.62 1536.75 1073.25 1536.75 1058.12L1536.75 1113.12C1536.75 1128.25 1580.06 1140.62 1633 1140.62 1685.94 1140.62 1729.25 1128.25 1729.25 1113.12L1729.25 1058.12C1729.25 1073.25 1685.94 1085.62 1633 1085.62Z" fill="#000000" fill-rule="nonzero" fill-opacity="1"/></g></g></g><g><g><g><path d="M3016.56 1360.81 3016.56 1353.94 3002.81 1353.94 3002.81 1237.06 3016.56 1237.06 3016.56 1230.19 3026.87 1230.19 3026.87 1209.56 3016.56 1209.56 2910 1144.25 2803.44 1209.56 2793.12 1209.56 2793.12 1230.19 2803.44 1230.19 2803.44 1237.06 2817.19 1237.06 2817.19 1353.94 2803.44 1353.94 2803.44 1360.81 2779.37 1378 2779.37 1391.75 2910 1391.75 3040.62 1391.75 3040.62 1378 3016.56 1360.81ZM2858.44 1353.94 2837.81 1353.94 2837.81 1237.06 2858.44 1237.06 2858.44 1353.94ZM2899.69 1353.94 2879.06 1353.94 2879.06 1237.06 2899.69 1237.06 2899.69 1353.94ZM2906.56 1202.69C2899 1202.69 2892.81 1196.5 2892.81 1188.94 2892.81 1181.38 2899 1175.19 2906.56 1175.19 2914.12 1175.19 2920.31 1181.38 2920.31 1188.94 2920.31 1196.5 2914.12 1202.69 2906.56 1202.69ZM2940.94 1353.94 2920.31 1353.94 2920.31 1237.06 2940.94 1237.06 2940.94 1353.94ZM2982.19 1353.94 2961.56 1353.94 2961.56 1237.06 2982.19 1237.06 2982.19 1353.94Z" fill="#000000" fill-rule="nonzero" fill-opacity="1"/></g></g></g><g><g><g><path d="M1154.56 1360.81 1154.56 1353.94 1140.81 1353.94 1140.81 1237.06 1154.56 1237.06 1154.56 1230.19 1164.88 1230.19 1164.88 1209.56 1154.56 1209.56 1048 1144.25 941.438 1209.56 931.125 1209.56 931.125 1230.19 941.438 1230.19 941.438 1237.06 955.188 1237.06 955.188 1353.94 941.438 1353.94 941.438 1360.81 917.375 1378 917.375 1391.75 1048 1391.75 1178.63 1391.75 1178.63 1378 1154.56 1360.81ZM996.438 1353.94 975.813 1353.94 975.813 1237.06 996.438 1237.06 996.438 1353.94ZM1037.69 1353.94 1017.06 1353.94 1017.06 1237.06 1037.69 1237.06 1037.69 1353.94ZM1044.56 1202.69C1037 1202.69 1030.81 1196.5 1030.81 1188.94 1030.81 1181.38 1037 1175.19 1044.56 1175.19 1052.13 1175.19 1058.31 1181.38 1058.31 1188.94 1058.31 1196.5 1052.13 1202.69 1044.56 1202.69ZM1078.94 1353.94 1058.31 1353.94 1058.31 1237.06 1078.94 1237.06 1078.94 1353.94ZM1120.19 1353.94 1099.56 1353.94 1099.56 1237.06 1120.19 1237.06 1120.19 1353.94Z" fill="#000000" fill-rule="nonzero" fill-opacity="1"/></g></g></g><g><g><g><path d="M3016.56 827.812 3016.56 820.937 3002.81 820.937 3002.81 704.062 3016.56 704.062 3016.56 697.187 3026.87 697.187 3026.87 676.562 3016.56 676.562 2910 611.25 2803.44 676.562 2793.12 676.562 2793.12 697.187 2803.44 697.187 2803.44 704.062 2817.19 704.062 2817.19 820.937 2803.44 820.937 2803.44 827.812 2779.37 845 2779.37 858.75 2910 858.75 3040.62 858.75 3040.62 845 3016.56 827.812ZM2858.44 820.937 2837.81 820.937 2837.81 704.062 2858.44 704.062 2858.44 820.937ZM2899.69 820.937 2879.06 820.937 2879.06 704.062 2899.69 704.062 2899.69 820.937ZM2906.56 669.687C2899 669.687 2892.81 663.5 2892.81 655.937 2892.81 648.375 2899 642.187 2906.56 642.187 2914.12 642.187 2920.31 648.375 2920.31 655.937 2920.31 663.5 2914.12 669.687 2906.56 669.687ZM2940.94 820.937 2920.31 820.937 2920.31 704.062 2940.94 704.062 2940.94 820.937ZM2982.19 820.937 2961.56 820.937 2961.56 704.062 2982.19 704.062 2982.19 820.937Z" fill="#000000" fill-rule="nonzero" fill-opacity="1"/></g></g></g><path d="M1216.02 733.161 1458.9 994.727 1453.86 999.405 1210.98 737.839ZM1456.38 997.066 1460.22 980.992 1468.86 1010.5 1440.07 999.705Z" fill="#000000" fill-rule="nonzero" fill-opacity="1"/><path d="M2.44304-2.41826 244.903 242.526 240.017 247.363-2.44304 2.41826ZM242.46 244.945 245.784 228.757 255.358 257.974 226.239 248.103Z" fill="#000000" fill-rule="nonzero" fill-opacity="1" transform="matrix(1 0 0 -1 1213.5 1268.47)"/><g><g><g><path d="M2329.13 912.031 2277.56 943.312 2391 1012.06 2442.56 980.781Z" fill="#000000" fill-rule="nonzero" fill-opacity="1"/><path d="M2504.44 943.312 2391 874.562 2342.19 904.125 2455.63 972.875Z" fill="#000000" fill-rule="nonzero" fill-opacity="1"/><path d="M2277.56 970.812 2277.56 1080.81 2384.13 1145.44 2384.13 1024.09 2277.56 959.469Z" fill="#000000" fill-rule="nonzero" fill-opacity="1"/><path d="M2435.69 1043 2411.63 1056.75 2411.63 1032.69 2435.69 1018.94 2435.69 1043ZM2397.88 1024.09 2397.88 1145.44 2504.44 1080.81 2504.44 959.469 2397.88 1024.09Z" fill="#000000" fill-rule="nonzero" fill-opacity="1"/></g></g></g><path d="M0.0504368-3.43713 104.811-1.89986 104.71 4.9744-0.0504368 3.43713ZM104.761 1.53727 95.7968-12.3457 123.092 1.80627 95.3933 15.1513Z" fill="#000000" fill-rule="nonzero" fill-opacity="1" transform="matrix(1 0 0 -1 1766.5 1010.31)"/><text fill="#000000" fill-opacity="1" font-family="Aptos,Aptos_MSFontService,sans-serif" font-style="normal" font-variant="normal" font-weight="400" font-stretch="normal" font-size="55" text-anchor="start" direction="ltr" writing-mode="lr-tb" unicode-bidi="normal" text-decoration="none" transform="matrix(1 0 0 1 784.667 967)">Large Cash Deposits</text><text fill="#000000" fill-opacity="1" font-family="Aptos,Aptos_MSFontService,sans-serif" font-style="normal" font-variant="normal" font-weight="400" font-stretch="normal" font-size="55" text-anchor="start" direction="ltr" writing-mode="lr-tb" unicode-bidi="normal" text-decoration="none" transform="matrix(1 0 0 1 784.667 1500)">High Risk Country </text><text fill="#000000" fill-opacity="1" font-family="Aptos,Aptos_MSFontService,sans-serif" font-style="normal" font-variant="normal" font-weight="400" font-stretch="normal" font-size="55" text-anchor="start" direction="ltr" writing-mode="lr-tb" unicode-bidi="normal" text-decoration="none" transform="matrix(1 0 0 1 784.667 1566)">Transactions</text><text fill="#000000" fill-opacity="1" font-family="Aptos,Aptos_MSFontService,sans-serif" font-style="normal" font-variant="normal" font-weight="400" font-stretch="normal" font-size="55" text-anchor="start" direction="ltr" writing-mode="lr-tb" unicode-bidi="normal" text-decoration="none" transform="matrix(1 0 0 1 2668.42 967)">Large Cash Deposits, </text><text fill="#000000" fill-opacity="1" font-family="Aptos,Aptos_MSFontService,sans-serif" font-style="normal" font-variant="normal" font-weight="400" font-stretch="normal" font-size="55" text-anchor="start" direction="ltr" writing-mode="lr-tb" unicode-bidi="normal" text-decoration="none" transform="matrix(1 0 0 1 2668.42 1033)">High Risk Country </text><text fill="#000000" fill-opacity="1" font-family="Aptos,Aptos_MSFontService,sans-serif" font-style="normal" font-variant="normal" font-weight="400" font-stretch="normal" font-size="55" text-anchor="start" direction="ltr" writing-mode="lr-tb" unicode-bidi="normal" text-decoration="none" transform="matrix(1 0 0 1 2668.42 1099)">Transactions </text><text fill="#000000" fill-opacity="1" font-family="Aptos,Aptos_MSFontService,sans-serif" font-style="normal" font-variant="normal" font-weight="400" font-stretch="normal" font-size="55" text-anchor="start" direction="ltr" writing-mode="lr-tb" unicode-bidi="normal" text-decoration="none" transform="matrix(1 0 0 1 2668.42 1500)">High Risk Country </text><text fill="#000000" fill-opacity="1" font-family="Aptos,Aptos_MSFontService,sans-serif" font-style="normal" font-variant="normal" font-weight="400" font-stretch="normal" font-size="55" text-anchor="start" direction="ltr" writing-mode="lr-tb" unicode-bidi="normal" text-decoration="none" transform="matrix(1 0 0 1 2668.42 1566)">Transactions, Large </text><text fill="#000000" fill-opacity="1" font-family="Aptos,Aptos_MSFontService,sans-serif" font-style="normal" font-variant="normal" font-weight="400" font-stretch="normal" font-size="55" text-anchor="start" direction="ltr" writing-mode="lr-tb" unicode-bidi="normal" text-decoration="none" transform="matrix(1 0 0 1 2668.42 1632)">Cash Deposits, </text><text fill="#000000" fill-opacity="1" font-family="Aptos,Aptos_MSFontService,sans-serif" font-style="normal" font-variant="normal" font-weight="400" font-stretch="normal" font-size="55" text-anchor="start" direction="ltr" writing-mode="lr-tb" unicode-bidi="normal" text-decoration="none" transform="matrix(1 0 0 1 1554.21 1225)">Server</text><text fill="#000000" fill-opacity="1" font-family="Aptos,Aptos_MSFontService,sans-serif" font-style="normal" font-variant="normal" font-weight="400" font-stretch="normal" font-size="55" text-anchor="start" direction="ltr" writing-mode="lr-tb" unicode-bidi="normal" text-decoration="none" transform="matrix(1 0 0 1 2225.66 1225)">Global Model</text><text fill="#000000" fill-opacity="1" font-family="Aptos,Aptos_MSFontService,sans-serif" font-style="normal" font-variant="normal" font-weight="700" font-stretch="normal" font-size="110" text-anchor="start" direction="ltr" writing-mode="lr-tb" unicode-bidi="normal" text-decoration="none" transform="matrix(1 0 0 1 784.667 402)">Local Data &amp; </text><text fill="#000000" fill-opacity="1" font-family="Aptos,Aptos_MSFontService,sans-serif" font-style="normal" font-variant="normal" font-weight="700" font-stretch="normal" font-size="110" text-anchor="start" direction="ltr" writing-mode="lr-tb" unicode-bidi="normal" text-decoration="none" transform="matrix(1 0 0 1 784.667 534)">Local Training</text><text fill="#000000" fill-opacity="1" font-family="Aptos,Aptos_MSFontService,sans-serif" font-style="normal" font-variant="normal" font-weight="700" font-stretch="normal" font-size="110" text-anchor="start" direction="ltr" writing-mode="lr-tb" unicode-bidi="normal" text-decoration="none" transform="matrix(1 0 0 1 2553.18 402)">Local Data &amp; </text><text fill="#000000" fill-opacity="1" font-family="Aptos,Aptos_MSFontService,sans-serif" font-style="normal" font-variant="normal" font-weight="700" font-stretch="normal" font-size="110" text-anchor="start" direction="ltr" writing-mode="lr-tb" unicode-bidi="normal" text-decoration="none" transform="matrix(1 0 0 1 2553.18 534)">Global Detection</text><path d="M1921.5 1008.5C1921.5 959.347 1961.35 919.5 2010.5 919.5 2059.65 919.5 2099.5 959.347 2099.5 1008.5 2099.5 1057.65 2059.65 1097.5 2010.5 1097.5 1961.35 1097.5 1921.5 1057.65 1921.5 1008.5Z" stroke="#042433" stroke-width="6.875" stroke-linecap="butt" stroke-linejoin="miter" stroke-miterlimit="8" stroke-opacity="1" fill="#000000" fill-rule="evenodd" fill-opacity="1"/><text fill="#FFFFFF" fill-opacity="1" font-family="Aptos,Aptos_MSFontService,sans-serif" font-style="normal" font-variant="normal" font-weight="700" font-stretch="normal" font-size="183" text-anchor="start" direction="ltr" writing-mode="lr-tb" unicode-bidi="normal" text-decoration="none" transform="matrix(1 0 0 1 1961.13 1067)">+</text><path d="M0.0504368-3.43713 104.811-1.89986 104.71 4.9744-0.0504368 3.43713ZM104.761 1.53727 95.7968-12.3457 123.092 1.80627 95.3933 15.1513Z" fill="#000000" fill-rule="nonzero" fill-opacity="1" transform="matrix(1 0 0 -1 2132.5 1008.31)"/><text fill="#000000" fill-opacity="1" font-family="Aptos,Aptos_MSFontService,sans-serif" font-style="normal" font-variant="normal" font-weight="400" font-stretch="normal" font-size="55" text-anchor="start" direction="ltr" writing-mode="lr-tb" unicode-bidi="normal" text-decoration="none" transform="matrix(1 0 0 1 1899.76 1225)">Aggregate</text><path d="M2.85719-1.91124 181.891 265.734 176.177 269.556-2.85719 1.91124ZM179.034 267.645 185.366 252.381 189.227 282.883 162.509 267.671Z" fill="#000000" fill-rule="nonzero" fill-opacity="1" transform="matrix(1 0 0 -1 2556.5 1010.38)"/><path d="M2559.27 1008.47 2737.66 1251.66 2732.11 1255.72 2553.73 1012.53ZM2734.88 1253.69 2740.55 1238.17 2745.73 1268.47 2718.38 1254.43Z" fill="#000000" fill-rule="nonzero" fill-opacity="1"/></g></g></svg>